<svg xmlns="http://www.w3.org/2000/svg" width="163.45382690429688" height="196.47666931152344" viewBox="24.318199157714844 -4.65348482131958 163.45382690429688 196.47666931152344"><title>Neo4j Graph Visualization</title><desc>Created using Neo4j (http://www.neo4j.com/)</desc><g class="layer relationships"><g class="relationship" transform="translate(134.09017338105306 162.82318472970792) rotate(283.42441829717217)"><path class="outline" fill="#A5ABB6" stroke="none" d="M 24.018736134675446,-6.953439040707552 L 24.277555179777966,-5.987513214418485 A 104.32909750843066 104.32909750843066 0 0 1 32.78775089401737,-7.890510109019431 L 32.61050253166279,-8.874676262696042 A 105.32909750843066 105.32909750843066 0 0 0 24.018736134675446,-6.953439040707552 Z M 66.61876626667971,-9.419573394439908 L 66.4731383817343,-8.43023395869183 A 104.32909750843066 104.32909750843066 0 0 1 75.03993159196862,-6.800852981571161 L 74.35670841877676,-3.8796877867193453 L 81.96985424215484,-5.693526443265467 L 75.9508958228911,-10.695739908040249 L 75.26767264969924,-7.774574713188434 A 105.32909750843066 105.32909750843066 0 0 0 66.61876626667971,-9.419573394439908"/><text text-anchor="middle" pointer-events="none" font-size="8px" fill="#000000" x="49.60050475809213" y="-7.028987720307228" font-family="sans-serif">ROUTE</text></g><g class="relationship" transform="translate(158.7720371755066 59.415071985076935) rotate(187.3016747134826)"><path class="outline" fill="#A5ABB6" stroke="none" d="M 12.066987298107785,21.900635094610966 L 12.933012701892222,21.400635094610966 A 44.2810304508977 44.2810304508977 0 0 0 32.630174964680364,39.42151127944193 L 32.20897123876157,40.32847733242966 A 45.2810304508977 45.2810304508977 0 0 1 12.066987298107785,21.900635094610966 Z M 65.71773723100605,42.17826360113415 L 65.39892321310205,41.23044630756543 A 44.2810304508977 44.2810304508977 0 0 0 86.95997099792906,25.487149381698213 L 84.54278734232037,23.710291712930633 L 91.50883616765486,20.143197130072505 L 90.18288253874067,27.856292940054985 L 87.76569888313198,26.079435271287405 A 45.2810304508977 45.2810304508977 0 0 1 65.71773723100605,42.17826360113415"/><text text-anchor="middle" pointer-events="none" font-size="8px" fill="#000000" x="48.81321831609594" y="46.97307352372847" transform="rotate(180 48.81321831609594 43.97307352372847)" font-family="sans-serif">ROUTE</text></g><g class="relationship" transform="translate(158.7720371755066 59.415071985076935) rotate(463.42441829717217)"><path class="outline" fill="#A5ABB6" stroke="none" d="M 24.018736134675446,-6.953439040707552 L 24.277555179777966,-5.987513214418485 A 104.32909750843066 104.32909750843066 0 0 1 32.78775089401737,-7.890510109019431 L 32.61050253166279,-8.874676262696042 A 105.32909750843066 105.32909750843066 0 0 0 24.018736134675446,-6.953439040707552 Z M 66.61876626667971,-9.419573394439908 L 66.4731383817343,-8.43023395869183 A 104.32909750843066 104.32909750843066 0 0 1 75.03993159196862,-6.800852981571161 L 74.35670841877676,-3.8796877867193453 L 81.96985424215484,-5.693526443265467 L 75.9508958228911,-10.695739908040249 L 75.26767264969924,-7.774574713188434 A 105.32909750843066 105.32909750843066 0 0 0 66.61876626667971,-9.419573394439908"/><text text-anchor="middle" pointer-events="none" font-size="8px" fill="#000000" x="49.60050475809213" y="-7.028987720307228" transform="rotate(180 49.60050475809213 -10.028987720307228)" font-family="sans-serif">ROUTE</text></g><g class="relationship" transform="translate(158.7720371755066 59.415071985076935) rotate(187.3016747134826)"><path class="outline" fill="#A5ABB6" stroke="none" d="M 21.40063509461097,12.933012701892217 L 21.90063509461097,12.06698729810778 A 58.76174976702201 58.76174976702201 0 0 0 32.908750028938144,16.993452590420446 L 32.59608473183539,17.94331595532492 A 59.76174976702201 59.76174976702201 0 0 1 21.40063509461097,12.933012701892217 Z M 66.3982423164531,18.99607878973316 L 66.14529235435757,18.02859942733008 A 58.76174976702201 58.76174976702201 0 0 0 77.43864280145779,13.79670973563213 L 76.10322650120925,11.110324933517868 L 83.92944338976582,11.128469168737894 L 79.21919786845585,17.378556138451145 L 77.88378156820731,14.692171336336882 A 59.76174976702201 59.76174976702201 0 0 1 66.3982423164531,18.99607878973316"/><text text-anchor="middle" pointer-events="none" font-size="8px" fill="#000000" x="49.436706698774856" y="23.410847906543296" transform="rotate(180 49.436706698774856 20.410847906543296)" font-family="sans-serif">ROUTE</text></g><g class="relationship" transform="translate(158.7720371755066 59.415071985076935) rotate(187.3016747134826)"><path class="outline" fill="#A5ABB6" stroke="none" d="M 25 0.5 L 32.65799170369233 0.5 L 32.65799170369233 -0.5 L 25 -0.5 Z M 66.65799170369233 0.5 L 74.31598340738466 0.5 L 74.31598340738466 3.5 L 81.31598340738466 0 L 74.31598340738466 -3.5 L 74.31598340738466 -0.5 L 66.65799170369233 -0.5 Z"/><text text-anchor="middle" pointer-events="none" font-size="8px" fill="#000000" x="49.65799170369233" y="3" transform="rotate(180 49.65799170369233 0)" font-family="sans-serif">ROUTE</text></g><g class="relationship" transform="translate(158.7720371755066 59.415071985076935) rotate(187.3016747134826)"><path class="outline" fill="#A5ABB6" stroke="none" d="M 21.40063509461097,-12.933012701892217 L 21.90063509461097,-12.06698729810778 A 58.76174976702201 58.76174976702201 0 0 1 32.90875002893814,-16.993452590420446 L 32.596084731835376,-17.94331595532492 A 59.76174976702201 59.76174976702201 0 0 0 21.40063509461097,-12.933012701892217 Z M 66.3982423164531,-18.99607878973316 L 66.14529235435757,-18.02859942733008 A 58.76174976702201 58.76174976702201 0 0 1 77.43864280145779,-13.79670973563213 L 76.10322650120925,-11.110324933517868 L 83.92944338976582,-11.128469168737894 L 79.21919786845585,-17.378556138451145 L 77.88378156820731,-14.692171336336882 A 59.76174976702201 59.76174976702201 0 0 0 66.3982423164531,-18.99607878973316"/><text text-anchor="middle" pointer-events="none" font-size="8px" fill="#000000" x="49.43670669877485" y="-17.410847906543296" transform="rotate(180 49.43670669877485 -20.410847906543296)" font-family="sans-serif">ROUTE</text></g><g class="relationship" transform="translate(158.7720371755066 59.415071985076935) rotate(187.3016747134826)"><path class="outline" fill="#A5ABB6" stroke="none" d="M 12.066987298107785,-21.900635094610966 L 12.933012701892222,-21.400635094610966 A 44.2810304508977 44.2810304508977 0 0 1 32.63017496468035,-39.42151127944193 L 32.20897123876156,-40.32847733242966 A 45.2810304508977 45.2810304508977 0 0 0 12.066987298107785,-21.900635094610966 Z M 65.71773723100607,-42.178263601134134 L 65.39892321310207,-41.23044630756543 A 44.2810304508977 44.2810304508977 0 0 1 86.95997099792906,-25.487149381698213 L 84.54278734232037,-23.710291712930633 L 91.50883616765486,-20.143197130072505 L 90.18288253874067,-27.856292940054985 L 87.76569888313198,-26.079435271287405 A 45.2810304508977 45.2810304508977 0 0 0 65.71773723100607,-42.178263601134134"/><text text-anchor="middle" pointer-events="none" font-size="8px" fill="#000000" x="48.81321831609594" y="-40.97307352372847" transform="rotate(180 48.81321831609594 -43.97307352372847)" font-family="sans-serif">ROUTE</text></g></g><g class="layer nodes"><g class="node" transform="translate(134.09017338105306,162.82318472970792)"><circle class="outline" cx="0" cy="0" r="25" fill="#4C8EDA" stroke="#2870c2" stroke-width="2px"/><text text-anchor="middle" pointer-events="none" font-family="sans-serif" dy="1.5625" font-size="25" fill="#FFFFFF"/><text text-anchor="middle" pointer-events="none" y="5" font-size="10px" fill="#FFFFFF" font-family="sans-serif"> MSN</text></g><g class="node" transform="translate(158.7720371755066,59.415071985076935)"><circle class="outline" cx="0" cy="0" r="25" fill="#4C8EDA" stroke="#2870c2" stroke-width="2px"/><text text-anchor="middle" pointer-events="none" font-family="sans-serif" dy="1.5625" font-size="25" fill="#FFFFFF"/><text text-anchor="middle" pointer-events="none" y="5" font-size="10px" fill="#FFFFFF" font-family="sans-serif"> ORD</text></g><g class="node" transform="translate(53.31819897837221,45.90299082147041)"><circle class="outline" cx="0" cy="0" r="25" fill="#4C8EDA" stroke="#2870c2" stroke-width="2px"/><text text-anchor="middle" pointer-events="none" font-family="sans-serif" dy="1.5625" font-size="25" fill="#FFFFFF"/><text text-anchor="middle" pointer-events="none" y="5" font-size="10px" fill="#FFFFFF" font-family="sans-serif"> GRR</text></g></g></svg>